<?xml version="1.0" encoding="UTF-8" standalone="no"?>
<!-- Created with Inkscape (http://www.inkscape.org/) -->

<svg
   xmlns:dc="http://purl.org/dc/elements/1.1/"
   xmlns:cc="http://creativecommons.org/ns#"
   xmlns:rdf="http://www.w3.org/1999/02/22-rdf-syntax-ns#"
   xmlns:svg="http://www.w3.org/2000/svg"
   xmlns="http://www.w3.org/2000/svg"
   xmlns:sodipodi="http://sodipodi.sourceforge.net/DTD/sodipodi-0.dtd"
   xmlns:inkscape="http://www.inkscape.org/namespaces/inkscape"
   version="1.1"
   id="svg2"
   xml:space="preserve"
   width="24"
   height="24"
   viewBox="0 0 24 24"
   sodipodi:docname="digitail.svg"
   inkscape:version="0.92.4 (5da689c313, 2019-01-14)"><metadata
     id="metadata8"><rdf:RDF><cc:Work
         rdf:about=""><dc:format>image/svg+xml</dc:format><dc:type
           rdf:resource="http://purl.org/dc/dcmitype/StillImage" /><dc:title></dc:title></cc:Work></rdf:RDF></metadata><defs
     id="defs6" /><sodipodi:namedview
     pagecolor="#ffffff"
     bordercolor="#666666"
     borderopacity="1"
     objecttolerance="10"
     gridtolerance="10"
     guidetolerance="10"
     inkscape:pageopacity="0"
     inkscape:pageshadow="2"
     inkscape:window-width="2560"
     inkscape:window-height="1355"
     id="namedview4"
     showgrid="false"
     inkscape:zoom="19.518557"
     inkscape:cx="14.941872"
     inkscape:cy="18.369396"
     inkscape:window-x="0"
     inkscape:window-y="26"
     inkscape:window-maximized="1"
     inkscape:current-layer="g12" /><g
     id="g10"
     inkscape:groupmode="layer"
     inkscape:label="ink_ext_XXXXXX"
     transform="matrix(1.3333333,0,0,-1.3333333,0,23.999996)"><g
       id="g12"
       transform="scale(0.1)"><path
         d="m 123.13219,72.96852 c 0,0 -5.99105,4.910292 14.89145,35.94883 0.79815,4.59799 -4.6565,8.82092 -7.44387,10.48559 -2.78737,1.66404 -9.89745,6.98997 -8.00676,9.98612 1.89128,2.99553 0.55918,3.49438 0.55918,3.49438 0,0 -1.16457,-3.16243 -2.16289,-3.32871 -0.99891,-0.16567 -1.33147,0.83264 -1.33147,0.83264 v 6.49052 c 0,0 5.4916,-1.16522 7.65511,-0.66635 2.16412,0.49946 6.15796,2.1635 8.32207,1.49775 -0.33318,0.83264 8.82031,10.98505 10.48436,15.14579 0.83264,-5.49223 2.4973,-14.81261 2.33102,-14.81261 1.66344,0 9.31916,-1.99662 10.48498,-1.66404 1.16458,0.33257 17.14238,5.49221 19.97164,4.99337 -0.16753,-1.16582 -13.31422,-19.30652 -13.98058,-21.30313 -0.66636,-1.99722 1.16458,-29.957144 -1.16521,-34.784173 0.49885,-3.495729 3.16243,-32.786461 2.82925,-36.281453 2.33103,-0.666418 3.71116,-0.831408 3.71116,-4.992817 -0.83264,-3.66195 -5.3247,-3.162242 -6.98998,-2.663583 -1.66467,0.499461 -0.88191,6.491322 -1.21447,10.81889 0.16628,-2.330405 -0.74889,-6.574955 -0.74889,-6.574955 0,0 -4.24387,-2.07975 -5.40907,0.416874 -4.16074,0.498968 -10.31931,-1.997226 -14.14687,-1.997226 -0.33256,-1.165757 -1.4374,-1.811729 0.5826,-2.996024 2.41355,-1.414808 1.91409,-3.827675 1.91409,-3.827675 0,0 0.24942,-1.16508 -8.65403,-0.83264 -3.99506,0.14916 -7.15687,0.999105 -3.32808,5.076512 2.16226,1.248282 -0.002,2.412867 -0.002,2.412867 0,0 -3.32871,-2.829064 -5.49222,-1.330806 -2.16289,1.497766 -4.94657,1.331546 -4.22048,5.492217 -1.93686,1.830451 -3.93409,2.329172 -3.93409,2.329172 0,0 -15.88605,-36.120528 -77.487727,-18.200267 C 19.98108,38.292176 7.5467953,66.89438 1.3064126,76.880446 -0.4665811,79.716531 9.6673769,62.824671 43.413282,59.821195 68.443453,57.592285 77.447903,87.115934 123.13219,72.96852"
         style="fill:#df712a;fill-opacity:1;fill-rule:nonzero;stroke:none;stroke-width:0.06158574"
         id="path14"
         inkscape:connector-curvature="0" /><path
         d="m 34.706107,113.61387 c 0.150577,0.25497 0.618506,0.92563 1.018813,0.77352 0.309344,-0.11763 0.239814,-1.00262 0.207605,-1.23357 -0.162155,-1.16211 -0.690191,-2.30945 -1.235102,-3.3367 -0.513132,-0.96689 -1.059459,-2.01509 -1.772992,-2.85142 0.119107,1.14364 0.56702,4.59428 1.781676,6.64817 z m 9.228253,-4.98413 c 0.2206,-0.35103 -0.258167,-1.00754 -0.452532,-1.28098 -0.367605,-0.51548 -1.03347,-0.74334 -1.569512,-1.03218 0.07125,0.64419 0.509067,2.29899 2.022044,2.31316 -0.01323,0.0209 -0.04958,0.0777 0,0 0.187344,-0.29746 -0.06042,0.0955 0,0 z m 5.685596,-0.67251 c 0.02094,0.0924 -0.230946,0.54996 -0.371917,0.57582 -0.37364,0.0696 -0.666604,-0.3769 -0.883386,-0.60353 -1.11501,-1.16275 -3.267863,-2.57676 -4.057699,-2.71718 -0.410162,-0.0733 -1.19464,-0.23032 -1.545372,0.0721 -0.269438,0.2328 0.702448,0.85789 0.857151,0.98538 0.536904,0.44465 1.137119,1.10484 1.267557,1.81001 0.291055,1.57658 -1.981336,1.71823 -2.85222,0.96504 -0.572069,-0.49392 -1.01832,-1.27113 -1.207203,-1.99722 -0.10993,-0.42433 -0.06707,-0.83141 0.04113,-1.25019 0.118368,-0.46066 -0.02235,-0.45143 -0.382447,-0.7729 -0.647389,-0.5789 -1.233932,-1.22064 -2.007079,-1.63942 -0.551193,-0.29931 -1.24859,-0.70085 -0.991408,0.21248 0.247328,0.87759 1.373671,3.90084 -0.694256,3.43586 -1.647911,-0.37013 -2.843537,-1.93626 -4.037007,-3.00477 -0.179953,0.66759 2.140105,3.04727 2.657301,3.79061 0.540354,0.7766 1.908235,2.54718 2.13986,5.18059 0.07458,0.84927 0.110669,1.63387 -0.645912,2.20107 0.194365,0.75688 -1.245448,0.60908 -1.621429,0.48837 -0.87421,-0.28144 -15.847489,-4.92376 -15.362009,-5.97504 0.17632,-0.38121 0.830422,-0.52225 1.196303,-0.59061 0.718583,-0.13365 6.088797,1.47806 7.444669,1.91655 -0.740445,-3.2388 -2.400366,-12.301135 -2.718456,-13.617838 -0.253057,-1.045725 1.869989,-0.816011 2.081166,0.09053 0.745558,3.208618 2.71316,14.087118 2.889049,14.316218 0.786389,0.35289 1.243478,0.49577 1.659675,0.64295 -0.771301,-1.45281 -0.890591,-2.34703 -1.153809,-3.96612 -0.287667,-1.77058 -0.227806,-3.54796 -0.342787,-5.32963 -0.0332,-0.5167 -0.07507,-1.19476 0.508576,-1.41771 0.428451,-0.16381 0.962769,-0.0437 1.341399,0.19277 0.593009,0.37013 0.954332,1.09192 1.428296,1.592 0.597567,0.63002 1.223771,1.23294 1.879042,1.80322 -0.412809,-0.84435 -0.98728,-2.45666 -0.106297,-3.20245 1.273101,-1.07714 3.555592,0.31346 4.589062,1.11162 0.335642,0.25927 0.680338,0.52532 0.98297,0.82279 0.39384,0.38613 0.351962,0.23217 0.858875,0.10531 1.012038,-0.25435 2.132591,-0.0456 3.100163,0.29253 0.964003,0.33688 1.785064,0.8702 2.543307,1.54826 0.572316,0.51241 1.465064,1.08576 1.515133,1.93257 -0.0083,0.0284 -0.04527,-0.77106 0,0"
         style="fill:#231f20;fill-opacity:1;fill-rule:nonzero;stroke:none;stroke-width:0.06158574"
         id="path16"
         inkscape:connector-curvature="0" /><path
         d="m 74.664228,108.8336 c 0.681138,0.5327 1.335178,0.93671 1.128867,1.79583 -0.30793,1.28345 -0.573364,1.17875 -0.923787,1.28345 -1.74842,0.52224 -4.218007,-0.46744 -5.853725,-1.05004 -3.831248,-1.36412 -43.786475,-15.466026 -44.328984,-15.908211 -0.41016,-0.33441 -0.776534,-1.124557 -0.609329,-1.652346 0.18137,-0.572131 1.414994,-1.71701 1.934408,-1.918396 1.340722,-0.521015 24.274882,7.780127 25.145766,7.982128 -1.178813,-3.157501 -9.442819,-35.04789 -9.246545,-35.778975 0.160246,-0.596087 0.88819,-0.458752 1.346017,-0.397166 0.82993,0.112825 1.672916,0.08442 2.489851,0.294934 0.632485,0.162649 1.481199,0.375304 1.771082,1.033039 0.324311,0.735889 9.870347,36.823223 10.312963,37.027683 1.808343,0.83634 16.513785,7.03679 16.833416,7.28807"
         style="fill:#231f20;fill-opacity:1;fill-rule:nonzero;stroke:none;stroke-width:0.06158574"
         id="path18"
         inkscape:connector-curvature="0" /><path
         d="m 93.698532,97.83561 c 0.845571,0.297458 1.32717,1.221861 1.750264,1.945494 0.349197,0.597376 1.005695,1.696686 0.532104,2.382136 -0.402155,0.58199 -1.520555,0.66575 -2.152418,0.6836 -1.660967,0.0462 -2.523789,-1.00016 -3.382291,-2.30084 -2.541032,-3.850342 2.352577,-3.026941 3.252341,-2.71039"
         style="fill:#231f20;fill-opacity:1;fill-rule:nonzero;stroke:none;stroke-width:0.06158574"
         id="path20"
         inkscape:connector-curvature="0" /><path
         d="m 64.888723,87.561261 c 0.634333,0.658905 1.345033,1.330251 2.260814,1.552576 0.417551,0.102232 0.971822,0.152117 1.378904,-0.01723 0.408929,-0.16936 0.02525,-0.595473 -0.115165,-0.815335 -1.287759,-2.015762 -2.073593,-4.259268 -3.190758,-6.356325 -0.314087,-0.589375 -0.777828,-1.170867 -1.301307,-1.588234 -0.708236,-0.565357 -0.911469,0.4816 -0.965664,1.040244 -0.200769,2.069835 0.4311,4.671093 1.933176,6.184318 0.942262,0.979828 -0.779675,-0.785712 0,0 z m 54.271187,30.304489 c 1.07777,-0.51301 -0.62447,-5.22862 -0.94964,-5.95287 -0.72056,-1.60616 -4.78275,-7.81031 -5.72193,-9.06481 -1.04818,-1.39676 -1.96829,-2.72825 -2.63094,-2.66173 -1.52609,0.15335 1.40846,6.56319 2.75903,9.59629 0,0 4.36212,8.31407 6.54348,8.08312 z M 103.0343,93.280113 c -0.10777,-0.352271 -0.25373,-1.859889 -0.50376,-2.193684 -1.08084,-1.442955 -2.31315,-2.778687 -3.680358,-3.95436 -1.262507,-1.085695 -7.138405,-3.775267 -7.360113,-2.327262 -0.150272,0.985371 2.066199,6.584008 2.342718,7.395708 0.227872,0.66882 0.304239,1.345031 -0.380598,1.750266 -0.709465,0.419399 -1.378902,0.490839 -2.167202,0.282678 -0.715011,-0.189068 -1.486067,-0.206312 -2.175209,-0.483447 -0.753195,-0.302386 -1.308083,-1.041416 -1.617244,-1.768127 -0.153342,-0.360892 -3.949491,-6.807566 -5.762574,-8.296954 -1.301308,-1.06956 -2.62047,-2.24597 -4.182288,-2.904138 -0.64665,-0.27307 -1.595686,-0.628358 -2.302075,-0.401784 -0.55304,0.176873 -1.083292,0.926434 -1.418936,1.399904 -0.933023,1.316888 0.306082,7.204362 0.334411,8.144776 0.02156,0.719938 -0.36274,1.008775 -0.93364,1.34996 -0.291916,0.174288 -0.618937,0.351039 -0.97059,0.30177 -0.29438,-0.04126 -0.576443,-0.315319 -0.868361,-0.271593 -0.270976,0.04063 -0.50377,0.222939 -0.769821,0.275904 -1.856194,0.368899 -4.573356,-0.179215 -6.009536,-0.718706 -3.143521,-1.179367 -5.372186,-3.517777 -6.248305,-6.774308 -0.433994,-1.612314 -0.444833,-3.176037 0.367544,-4.677684 0.699861,-1.29256 1.799228,-2.0561 3.275869,-2.167016 1.419983,-0.106605 2.956546,0.266543 4.166091,1.013763 1.386911,0.85641 1.970127,2.359719 3.198763,3.353281 -0.0037,-0.812377 0.293764,-1.563231 0.810468,-2.184631 0.554887,-0.66685 1.091915,-1.395533 1.934408,-1.70149 1.663431,-0.604095 3.692682,-0.240863 5.35365,0.205634 3.591067,0.965665 6.658032,3.360303 9.134394,6.061885 0.71809,-1.260598 2.212775,-1.904847 3.581825,-2.150452 1.815551,-0.325234 3.684678,-0.03898 5.408462,0.574473 3.176592,1.130221 5.973817,3.223398 8.229077,5.703454 0.3529,-1.455209 1.12949,-2.470203 1.43311,-2.742289 4.41077,-3.947708 9.50822,-0.739028 11.74993,0.645481 2.32241,1.434269 7.68776,7.455446 8.51917,8.493782 0.63557,0.792608 1.25758,1.949804 1.00139,2.767663 -0.20324,0.649113 -0.85544,1.002 -1.50763,0.931176 -0.79199,-0.0856 -1.36597,-0.710083 -1.85558,-1.279751 -1.23786,-1.44357 -2.45542,-2.904384 -3.74995,-4.29807 -1.24033,-1.335794 -5.25572,-4.613264 -6.46095,-4.875742 -0.85544,-0.185989 -4.51056,0.04188 -4.79939,1.083908 -0.34427,1.242801 -0.67682,3.330557 0.35658,4.371355 1.14426,1.15227 2.26328,2.345186 3.34225,3.563351 0.29808,0.33749 13.51931,13.337623 11.04973,21.844463 -0.16322,0.56228 -0.76366,2.48067 -3.02449,2.46958 -3.61138,-0.0172 -7.43893,-3.43217 -9.74902,-7.12854 -0.69776,-1.11655 -2.22632,-4.36951 -2.53487,-5.10608 -4.17858,-9.983043 -4.55735,-15.578107 -4.55735,-15.578107"
         style="fill:#231f20;fill-opacity:1;fill-rule:nonzero;stroke:none;stroke-width:0.06158574"
         id="path22"
         inkscape:connector-curvature="0" /><path
         d="M 49.557878,41.217991 C 49.277355,41.057252 49.02861,40.7888 48.819834,40.551079 48.226825,39.873637 47.665532,39.073514 46.95083,38.523123 c -0.620908,-0.478768 -2.70811,-0.734719 -3.706476,0.491207 -1.698659,2.08671 -1.635595,5.287259 -1.481384,7.82644 0.100569,1.662136 0.384665,3.3276 0.952608,4.896558 0.47224,1.305802 1.29287,3.359564 2.769695,3.792573 1.684494,0.494595 2.688157,-1.761906 3.093515,-3.003044 0.07459,-0.228298 0.171269,-0.930991 0.395933,-0.892993 0.281017,0.04766 0.582171,-0.01539 0.85358,0.09072 0.698566,0.273996 0.201816,2.939551 -0.603603,3.871218 -0.479445,0.555505 -0.905002,1.07418 -1.639966,1.254627 -1.414317,0.346602 -2.938071,-0.187406 -4.066322,-1.036612 -1.906325,-1.43501 -3.48058,-3.859025 -3.983859,-6.179514 -0.251638,-1.162185 -0.557844,-2.437009 -0.692839,-3.618163 -0.204957,-1.796331 0.179215,-3.440178 0.564372,-5.080823 0.366127,-1.559844 1.151592,-2.927724 2.44754,-3.94629 1.336165,-1.050099 3.058595,-1.136504 4.621579,-0.581493 1.593285,0.566096 2.927478,1.888711 3.927816,3.280672 0.858813,1.19538 -0.255767,1.672669 -0.211733,1.69718 -0.04403,-0.0245 -0.187159,0.08881 -0.633408,-0.16739"
         style="fill:#ffffff;fill-opacity:1;fill-rule:nonzero;stroke:none;stroke-width:0.06158574"
         id="path24"
         inkscape:connector-curvature="0" /><path
         d="m 53.618471,43.974631 c -0.321662,0.143372 -0.392362,0.690192 -0.433994,1.002 -0.01854,0.140231 -0.136413,0.854748 0.13906,0.848712 0.231378,-0.0044 0.539307,-0.159014 0.770992,-0.212655 0.07459,-0.01707 0.612717,-0.352209 0.639691,-0.406343 -0.201878,-0.331516 -0.708236,-1.41407 -1.115749,-1.231714 z m 1.187928,2.928956 c -0.571639,0 -0.852593,0.853023 -0.799198,1.317811 0.0284,0.247082 0.237473,1.354394 0.686372,1.007051 0.337983,-0.261001 0.761631,-2.324862 0.112826,-2.324862 z m 20.370222,-0.157105 c 0.2796,-1.632023 0.106544,-6.875925 -0.95581,-8.221696 -1.266203,3.683628 0.456349,7.523313 0.95581,8.221696 z m 12.32146,7.875029 c -0.03573,-0.14411 -0.235256,-1.164586 -0.506234,-1.091915 -0.311623,0.0837 -0.395998,0.966835 -0.428024,1.219398 -0.110237,0.862201 -0.108393,1.999628 0.371362,2.760334 0.199543,0.314642 0.508086,0.690931 0.906545,0.721723 0.216161,0.01657 0.694072,-0.08252 0.499461,-0.395256 -0.296848,-0.824695 -0.578905,-2.129081 -0.84311,-3.214284 z m 21.926989,-6.12464 c -0.2174,-0.409668 -0.95273,-1.890621 -1.54212,-2.091512 -0.55673,-0.167453 -0.72856,0.62454 -0.79014,1.008219 -0.26112,1.641876 0.36952,3.133421 1.02171,4.613881 0.41263,0.935549 2.18445,4.207107 2.93887,4.583334 0.48838,-0.95889 -0.5475,-6.074879 -1.62832,-8.113922 z m 7.37057,17.051059 c -0.95273,-0.139061 -1.27914,-0.900198 -1.47866,-1.281476 -0.59493,-1.135025 -1.48114,-2.358795 -2.37969,-3.270079 -0.25988,0.772717 0.0505,1.723662 -0.29807,2.454746 -0.23894,0.502539 -1.05865,0.539368 -1.49591,0.318275 -0.62511,-0.315874 -1.03526,-0.695242 -1.32471,-1.351006 -0.35658,-0.805664 -0.66698,-1.614224 -1.15042,-2.356394 -0.0652,-0.100323 -0.46251,-0.716181 -0.62941,-0.599229 -0.14287,0.100261 -0.17737,0.375734 -0.22295,0.531362 -0.26789,0.918305 -0.16935,1.893329 0.11518,2.794945 0.51301,1.628881 -1.49162,1.503801 -1.9997,0.289883 -0.30422,-0.726526 -0.11762,-1.480459 -0.56781,-2.151619 -0.5315,-0.790269 -1.17506,-1.487481 -1.81863,-2.185124 -0.32087,-0.348576 -1.0328,-1.226911 -1.59754,-1.006311 -0.45758,0.178043 -0.59493,0.900937 -0.66759,1.322183 -0.13363,0.774872 -0.21616,1.585834 -0.21493,2.371791 0.002,0.785711 -0.39291,1.157873 -1.187366,0.951438 -0.597384,-0.155134 -1.045114,-0.409422 -1.3475,-0.965664 -0.450809,-0.828945 -0.995226,-1.601907 -1.486678,-2.406894 -0.04252,0.534072 -0.145959,1.244278 -0.737185,1.438888 -0.478521,0.157537 -1.099306,0.07309 -1.275439,-0.458998 -0.197691,-0.595411 0.08807,-1.24089 -0.10408,-1.811298 -0.240186,-0.71421 -0.532713,-1.408281 -0.886215,-2.074638 -0.489608,-0.920646 -1.171367,-2.130251 -2.295307,-2.340258 -1.047574,-0.195351 -1.084523,1.236025 -1.116549,1.95701 -0.03819,0.859305 -0.09422,1.692437 -0.214317,2.547432 -0.07883,0.565788 -0.115166,1.005572 -0.747038,1.195379 -0.251882,0.07549 -0.415702,-0.153472 -0.650959,-0.05918 -0.355345,0.142878 -0.750116,0.153225 -1.125166,0.09718 -2.821247,-0.422909 -3.001076,-2.812005 -3.148886,-2.885169 -0.296223,-0.147929 -0.576437,-0.349745 -0.869589,-0.513626 -0.731638,-0.408929 -1.472512,-0.841938 -2.120393,-1.375762 -0.317786,0.580013 -0.60354,1.458287 -1.362282,1.569203 -1.042643,0.152549 -2.071122,-0.622139 -2.783672,-1.284185 -0.0025,0.838181 0.188452,1.947464 -0.369515,2.660504 -0.287605,0.369514 -0.772285,0.423648 -1.173824,0.198922 -0.535796,-0.299985 -0.479137,-1.098197 -0.456966,-1.619767 0.03265,-0.755596 0.0425,-1.514824 0.0388,-2.27122 -0.0019,-0.404619 -0.01232,-0.809237 -0.03695,-1.213179 -0.01479,-0.269929 -0.257429,-0.433748 -0.407082,-0.630021 -0.857273,-1.124678 -1.7244,-2.206062 -2.634638,-3.290526 -0.94411,-1.12511 -1.845724,-0.101063 -2.134561,0.984202 -0.126866,0.474148 -0.217398,0.962461 -0.272824,1.450097 -0.04742,0.421986 0.02586,0.844403 -0.02403,1.264479 -0.1515,1.267558 -1.88945,0.546327 -2.443722,-0.0012 -0.17983,-0.177982 -1.563046,-1.652468 -1.389373,-1.930774 -0.140416,0.08875 -0.139185,0.293209 -0.221094,0.421924 -0.121324,0.190299 -0.342416,0.279537 -0.554888,0.317105 -0.606619,0.108452 -1.158427,-0.11067 -1.649265,-0.454441 -0.483448,-0.337551 -0.907774,-0.747712 -1.271807,-1.210099 -0.331517,-0.421246 -0.544172,-0.976687 -0.968805,-1.316888 0.0058,0.102971 0.0099,1.783155 -0.12699,2.108881 -0.395997,0.941585 -1.250499,0.665619 -1.527882,-0.165789 -0.248251,-0.745742 -0.08443,-1.477318 -0.628605,-2.112452 -0.521755,-0.608345 -1.110206,-1.05053 -1.862229,-1.330807 -0.794395,-0.296165 -0.455858,0.829745 -0.509992,1.325325 -0.08467,0.772902 -0.484064,1.48551 -1.157628,1.89327 -1.300997,0.786387 -2.793528,-0.14602 -3.410063,-1.357289 -0.313226,-0.616595 -0.387806,-1.183123 -0.209823,-1.836548 0.05462,-0.199661 0.178044,-0.396674 -0.0524,-0.486651 -0.270915,-0.105865 -0.582663,-0.119291 -0.835719,-0.269683 -0.462632,-0.275227 -0.377212,-1.056812 -0.320492,-1.51002 0.0768,-0.612287 0.287235,-1.245203 0.705157,-1.711407 0.989683,-1.10374 2.685939,-0.485481 3.614036,0.375488 0.511223,0.473718 0.737366,1.010192 0.987528,1.640706 0.324803,0.818412 1.242799,0.591284 1.951528,0.832146 0.406342,0.137829 0.792424,0.333671 1.148204,0.572502 -0.0842,-0.516459 -0.272517,-1.065927 -0.153225,-1.592547 0.191039,-0.842924 1.397504,-0.365203 1.843508,-0.03392 0.750545,0.559322 1.198766,1.453547 1.656841,2.244984 0.250038,0.432333 0.525327,0.848529 0.780907,1.277905 0.25127,0.42174 0.399691,0.969299 0.709468,1.348667 0.322709,0.395503 0.21863,-1.202155 0.1903,-1.397504 -0.08438,-0.590546 -0.08314,-1.367142 0.737797,-1.203755 0.931176,0.185187 1.442954,0.62257 1.87467,1.453977 0.428637,0.826358 0.638028,1.820413 1.212624,2.561352 0.102848,-0.341124 0.218629,-1.901706 0.360892,-2.286125 0.274672,-0.740999 0.806157,-1.373916 1.585216,-1.600059 1.44665,-0.418844 3.046032,0.560553 4.050495,1.523077 -0.36582,-0.731577 -0.482216,-1.569267 -0.723017,-2.345061 -0.291917,-0.937521 -0.556735,-1.875533 -0.721785,-2.844031 -0.31963,-1.877872 -0.4311,-3.676852 -0.06158,-5.554048 0.107775,-0.546819 0.264819,-1.463831 0.917628,-1.617795 0.649729,-0.153287 1.297611,0.452716 1.632637,0.937951 0.94103,1.364739 1.139953,3.09302 1.326557,4.697144 0.234026,2.009728 0.325173,4.032141 0.514857,6.045995 0.08623,0.911962 0.174904,1.825401 0.185373,2.742475 0.0093,0.863862 0.07143,1.656533 0.482217,2.432637 0.329483,0.621891 2.020632,2.990479 2.290994,1.178566 0.093,-0.622633 -0.07576,-1.208189 -0.397233,-1.74534 -0.424321,-0.708236 -1.179368,-1.227897 -1.533485,-1.965695 -0.130562,-0.271592 -0.141032,-0.598797 0.0813,-0.829004 0.289459,-0.299985 0.726718,-0.08252 1.044498,0.04934 0.799996,0.331947 1.447267,0.901615 1.872822,1.656534 0.358432,0.636796 0.364588,1.60246 0.935486,2.090774 0.758734,0.650529 1.609235,1.187002 2.48437,1.665956 -0.01235,-0.983464 0.335024,-2.486771 1.252038,-3.022012 0.540722,-0.315135 1.35858,-0.123666 1.880214,0.146019 0.873902,0.452038 0.862815,1.33949 1.389989,2.052037 0.198307,-1.265649 1.26189,-2.205262 2.563816,-2.039782 1.514391,0.192948 2.661114,1.393131 3.464813,2.603907 0.162586,-0.511654 0.829562,-0.405358 1.22802,-0.309099 0.583829,0.14171 0.93733,0.460662 1.138099,1.025279 0.282065,0.7915 0.493303,1.602462 0.803699,2.385279 0.224786,0.567265 0.367667,1.301244 0.891763,1.681782 0.28144,-1.090498 0.365815,-2.957285 1.737332,-3.259671 1.92515,-0.42488 3.72408,1.506448 4.77288,2.843476 0.22541,-1.089515 1.13503,-1.441723 2.15674,-1.280985 1.50392,0.23766 1.94733,1.540814 2.86928,2.507218 0.16011,-0.64117 0.41201,-1.442462 -0.0621,-2.015025 -0.5869,-0.708236 -1.20768,-1.392637 -1.70592,-2.168001 -0.98721,-1.535333 -2.12225,-2.988141 -2.85758,-4.670664 -0.68299,-1.563723 -1.39121,-3.457977 -0.68543,-5.139268 0.56658,-1.349837 1.99845,-1.798304 3.27141,-1.114086 1.37706,0.740198 2.12348,2.185061 2.77629,3.538039 0.70147,1.453547 1.32964,3.01844 1.43864,4.645413 0.0727,1.082061 0.15152,2.191836 0.16936,3.274636 0.0129,0.745742 -0.1909,1.500168 0.14965,2.204093 0.34735,0.718089 1.0482,1.242307 1.51872,1.879042 0.55304,0.748944 1.06789,1.542046 1.55071,2.33761 0.25436,0.418845 1.13442,2.305155 0.50193,2.212775"
         style="fill:#ffffff;fill-opacity:1;fill-rule:nonzero;stroke:none;stroke-width:0.06158574"
         id="path26"
         inkscape:connector-curvature="0" /></g></g></svg>