<?xml version="1.0" encoding="UTF-8" standalone="no"?>
<svg
   xmlns:dc="http://purl.org/dc/elements/1.1/"
   xmlns:cc="http://creativecommons.org/ns#"
   xmlns:rdf="http://www.w3.org/1999/02/22-rdf-syntax-ns#"
   xmlns:svg="http://www.w3.org/2000/svg"
   xmlns="http://www.w3.org/2000/svg"
   xmlns:sodipodi="http://sodipodi.sourceforge.net/DTD/sodipodi-0.dtd"
   xmlns:inkscape="http://www.inkscape.org/namespaces/inkscape"
   width="30pt"
   height="30pt"
   viewBox="0 0 30 30"
   version="1.1"
   id="svg7"
   sodipodi:docname="alarm.svg"
   inkscape:version="0.92.4 (5da689c313, 2019-01-14)">
  <metadata
     id="metadata13">
    <rdf:RDF>
      <cc:Work
         rdf:about="">
        <dc:format>image/svg+xml</dc:format>
        <dc:type
           rdf:resource="http://purl.org/dc/dcmitype/StillImage" />
      </cc:Work>
    </rdf:RDF>
  </metadata>
  <defs
     id="defs11" />
  <sodipodi:namedview
     pagecolor="#ffffff"
     bordercolor="#666666"
     borderopacity="1"
     objecttolerance="10"
     gridtolerance="10"
     guidetolerance="10"
     inkscape:pageopacity="0"
     inkscape:pageshadow="2"
     inkscape:window-width="2560"
     inkscape:window-height="1355"
     id="namedview9"
     showgrid="false"
     inkscape:zoom="23.6"
     inkscape:cx="19.469498"
     inkscape:cy="17.847641"
     inkscape:window-x="0"
     inkscape:window-y="26"
     inkscape:window-maximized="1"
     inkscape:current-layer="svg7" />
  <g
     id="surface1"
     transform="matrix(1.4022684,0,0,1.4022684,-7.4485493,-2.7193264)">
    <path
       style="fill:#000000;fill-opacity:1;fill-rule:nonzero;stroke:none"
       d="M 10,5.371094 C 11.175598,6.6277674 11.886486,8.2851735 11.71875,10 c -0.199566,2.040244 -0.729061,4.028273 -1.289062,6 -0.280372,0.987171 0.715614,2.310764 1.839843,1.839844 1.814478,-0.760054 3.697181,-1.442745 5.660157,-1.539063 2.025042,-0.09936 4.026566,0.43995 5.921874,1.167969 0.515447,0.197992 1.104535,0.042 1.503907,-0.339844 0.401411,-0.383789 0.556276,-0.956372 0.40625,-1.488281 -0.150758,-0.534507 -0.600785,-0.876675 -1.121094,-1.0625 -2.164177,-0.77292 -4.420197,-1.445272 -6.710937,-1.277344 C 7.1555206,14.090606 14.665273,20.813143 14.730469,9.519531 14.744067,7.1640494 13.813538,4.8647379 12.101562,3.25 11.541496,2.7217449 10.635733,2.8154284 10.09375,3.363281 9.5536998,3.9091802 9.4748314,4.809707 10,5.371094 Z"
       id="path2"
       inkscape:connector-curvature="0"
       sodipodi:nodetypes="ssssssssssssss" />
    <path
       style="fill:#000000;fill-opacity:1;fill-rule:nonzero;stroke:none"
       d="m 7.699219,22.351562 c 0.203125,0.01172 0.402343,-0.03516 0.582031,-0.132812 0.183594,-0.05859 0.347656,-0.164062 0.480469,-0.308594 0.144531,-0.125 0.253906,-0.292968 0.308593,-0.480468 0.097657,-0.175782 0.140626,-0.378907 0.128907,-0.578126 L 9.148438,20.449219 c -0.070313,-0.25 -0.203126,-0.476563 -0.386719,-0.660157 L 8.460938,19.558594 C 8.230469,19.421875 7.96875,19.351562 7.699219,19.351562 7.5,19.347656 7.300781,19.390625 7.121094,19.480469 c -0.183594,0.0625 -0.347656,0.171875 -0.480469,0.308593 -0.144531,0.132813 -0.25,0.296876 -0.3125,0.480469 -0.089844,0.179688 -0.136719,0.378907 -0.128906,0.582031 L 6.261719,21.25 c 0.0625,0.25 0.195312,0.476562 0.378906,0.660156 l 0.300781,0.238282 c 0.230469,0.132812 0.492188,0.199218 0.757813,0.203124 z m 0,0"
       id="path4"
       inkscape:connector-curvature="0" />
  </g>
</svg>
