<?xml version="1.0" encoding="UTF-8" standalone="no"?>
<svg
   xmlns:dc="http://purl.org/dc/elements/1.1/"
   xmlns:cc="http://creativecommons.org/ns#"
   xmlns:rdf="http://www.w3.org/1999/02/22-rdf-syntax-ns#"
   xmlns:svg="http://www.w3.org/2000/svg"
   xmlns="http://www.w3.org/2000/svg"
   xmlns:sodipodi="http://sodipodi.sourceforge.net/DTD/sodipodi-0.dtd"
   xmlns:inkscape="http://www.inkscape.org/namespaces/inkscape"
   inkscape:version="1.0 (4035a4fb49, 2020-05-01)"
   sodipodi:docname="earposes.svg"
   version="1.1"
   viewBox="0 0 100 100"
   data-name="Layer 1"
   id="Layer_1">
  <metadata
     id="metadata29">
    <rdf:RDF>
      <cc:Work
         rdf:about="">
        <dc:format>image/svg+xml</dc:format>
        <dc:type
           rdf:resource="http://purl.org/dc/dcmitype/StillImage" />
      </cc:Work>
    </rdf:RDF>
  </metadata>
  <defs
     id="defs27" />
  <sodipodi:namedview
     inkscape:current-layer="Layer_1"
     inkscape:window-maximized="1"
     inkscape:window-y="26"
     inkscape:window-x="0"
     inkscape:cy="50"
     inkscape:cx="50"
     inkscape:zoom="7.15"
     showgrid="false"
     id="namedview25"
     inkscape:window-height="1355"
     inkscape:window-width="2560"
     inkscape:pageshadow="2"
     inkscape:pageopacity="0"
     guidetolerance="10"
     gridtolerance="10"
     objecttolerance="10"
     borderopacity="1"
     bordercolor="#666666"
     pagecolor="#ffffff" />
  <g
     transform="matrix(1.5430908,0,0,1.5430908,-25.522448,-25.514008)"
     id="surface1">
    <path
       id="path2"
       d="m 51.39,64.84 c 0.77,-3 3.7,-5.23 6.65,-6 a 6.78,6.78 0 0 1 4.87,0.37 c 1.57,0.82 2.12,2.46 2.48,4.1 C 67,71 58.73,75.79 52.6,77.6 c -1.85,0.54 -1.06,3.44 0.8,2.89 6.36,-1.87 13.72,-6.08 15,-13.23 0.6,-3.31 -0.2,-7.79 -3,-10 -2.8,-2.21 -6.42,-2.09 -9.49,-0.87 -3.39,1.34 -6.49,4 -7.41,7.66 -0.5,1.87 2.42,2.67 2.89,0.79 z" />
    <path
       id="path4"
       d="m 55.31,69.83 a 2,2 0 0 1 0.07,-0.23 l -0.15,0.36 a 1.61,1.61 0 0 1 0.17,-0.28 l -0.24,0.3 a 1.45,1.45 0 0 1 0.22,-0.21 L 55.07,70 a 1.41,1.41 0 0 1 0.24,-0.13 L 55,70 a 0.9,0.9 0 0 1 0.27,-0.07 h -0.4 0.27 l -0.4,-0.06 0.24,0.07 -0.36,-0.16 0.21,0.13 -0.3,-0.23 a 0.54,0.54 0 0 1 0.15,0.15 l -0.23,-0.3 a 0.72,0.72 0 0 1 0.12,0.21 l -0.21,-0.36 a 0.83,0.83 0 0 1 0.06,0.21 l -0.06,-0.4 a 0.81,0.81 0 0 1 0,0.22 v -0.39 a 1.57,1.57 0 0 1 0,0.3 l 0.15,-0.36 a 3.51,3.51 0 0 1 -0.33,0.6 l 0.18,-0.24 a 1.21,1.21 0 0 1 -0.16,0.16 l 0.3,-0.23 -0.14,0.07 0.36,-0.15 a 0.86,0.86 0 0 1 -0.23,0.06 l 0.4,-0.06 a 2.15,2.15 0 0 1 -0.62,0 1.66,1.66 0 0 0 -1.06,0.44 1.54,1.54 0 0 0 -0.44,1.06 1.5,1.5 0 0 0 0.44,1.06 l 0.3,0.23 a 1.45,1.45 0 0 0 0.76,0.21 1.94,1.94 0 0 0 0.59,0 2.77,2.77 0 0 0 0.64,-0.11 2.38,2.38 0 0 0 0.87,-0.51 2.5,2.5 0 0 0 0.56,-0.73 3.23,3.23 0 0 0 0.39,-0.94 2.25,2.25 0 0 0 0,-1.31 A 2.65,2.65 0 0 0 57,68.1 2.73,2.73 0 0 0 56.59,67.61 2.38,2.38 0 0 0 56.1,67.27 2.2,2.2 0 0 0 55.5,67 a 2.72,2.72 0 0 0 -0.64,-0.05 3.12,3.12 0 0 0 -0.67,0.11 2.73,2.73 0 0 0 -0.62,0.3 3.28,3.28 0 0 0 -0.5,0.42 4.31,4.31 0 0 0 -0.39,0.56 2.93,2.93 0 0 0 -0.25,0.64 1.61,1.61 0 0 0 0.15,1.16 1.49,1.49 0 0 0 1.48,0.72 1.5,1.5 0 0 0 1.25,-1.03 z" />
  </g>
  <path
     style="stroke-width:1.54309"
     id="path7"
     d="m 76.074654,66.253605 a 2.3146366,2.3146366 0 0 0 0,-4.629273 2.3146366,2.3146366 0 0 0 0,4.629273 z" />
  <path
     style="stroke-width:1.54309"
     id="path9"
     d="m 74.084066,60.420721 h -1.20361 a 1.9288636,1.9288636 0 0 0 -0.879562,0.200603 2.0368799,2.0368799 0 0 0 -1.234473,1.234472 1.8825709,1.8825709 0 0 0 -0.200601,0.879562 l 0.09258,0.617236 a 2.2374817,2.2374817 0 0 0 0.586375,1.01844 l 0.478358,0.370342 a 2.3146363,2.3146363 0 0 0 1.157318,0.308619 h 1.20361 a 1.6665381,1.6665381 0 0 0 0.894993,-0.200602 1.7591236,1.7591236 0 0 0 0.740684,-0.478359 1.5430908,1.5430908 0 0 0 0.478358,-0.740683 1.7745545,1.7745545 0 0 0 0.200602,-0.894993 l -0.09258,-0.617236 a 2.4226526,2.4226526 0 0 0 -0.586375,-1.01844 l -0.462927,-0.354911 a 2.2837744,2.2837744 0 0 0 -1.17275,-0.32405 z" />
  <path
     style="stroke-width:1.54309"
     id="path11"
     d="m 68.374631,64.417327 5.045907,-0.910423 1.327058,-0.246896 0.601805,-0.108016 a 2.4689454,2.4689454 0 0 1 0.725253,-0.123447 c -0.216032,0 -0.416634,0 0,0 0.416634,0 0.108016,0 -0.216032,0 l -0.894994,-0.67896 c -0.108016,-0.154309 -0.169739,-0.740684 -0.138878,-0.216032 0,0.200602 0,0.401203 0,0.601805 l 0.941286,10.385001 a 2.3146366,2.3146366 0 0 0 4.629273,0 L 79.839795,66.947996 79.592901,63.985262 A 20.816295,20.816295 0 0 0 79.23799,60.72934 3.2250599,3.2250599 0 0 0 76.151809,58.35298 16.017283,16.017283 0 0 0 73.204505,58.800476 l -6.018054,1.095595 a 2.3300672,2.3300672 0 0 0 -1.543091,2.839287 2.3917908,2.3917908 0 0 0 2.854718,1.620245 z" />
  <g
     transform="matrix(1.5430908,0,0,1.5430908,-25.522448,-25.514008)"
     data-name="surface1"
     id="surface1-2">
    <path
       id="path13"
       d="m 45.47,28 c -0.79,-3 -3.76,-5.23 -6.76,-6 a 7,7 0 0 0 -5,0.38 c -1.59,0.82 -2.15,2.46 -2.51,4.1 -1.68,7.63 6.76,12.47 13,14.29 a 1.5020403,1.5020403 0 0 1 -0.82,2.89 C 37,41.75 29.49,37.53 28.19,30.39 c -0.61,-3.32 0.2,-7.8 3,-10 2.8,-2.2 6.51,-2.09 9.63,-0.87 3.45,1.34 6.6,4 7.53,7.66 0.53,1.87 -2.41,2.66 -2.88,0.82 z" />
    <path
       id="path15"
       d="m 41.48,33 a 1.55,1.55 0 0 0 -0.07,-0.23 l 0.15,0.36 a 1.22,1.22 0 0 0 -0.17,-0.29 l 0.24,0.31 a 1.14,1.14 0 0 0 -0.22,-0.22 l 0.32,0.23 a 1.15,1.15 0 0 0 -0.25,-0.12 l 0.37,0.14 a 1.28,1.28 0 0 0 -0.28,-0.07 h 0.41 -0.27 0.4 l -0.24,0.07 0.36,-0.16 -0.21,0.13 0.3,-0.24 a 0.46,0.46 0 0 0 -0.15,0.16 l 0.24,-0.3 a 0.74,0.74 0 0 0 -0.13,0.21 l 0.22,-0.37 a 0.83,0.83 0 0 0 -0.06,0.21 l 0.06,-0.39 a 0.81,0.81 0 0 0 0,0.22 v -0.4 a 1.54,1.54 0 0 0 0,0.31 L 42.35,32.2 a 3.08,3.08 0 0 0 0.33,0.59 l -0.18,-0.23 0.16,0.16 -0.3,-0.24 0.14,0.08 -0.37,-0.15 a 1.68,1.68 0 0 0 0.24,0.06 L 42,32.37 a 3.31,3.31 0 0 0 0.63,0 1,1 0 0 1 0.59,0.13 1,1 0 0 1 0.49,0.3 1.54,1.54 0 0 1 0.44,1.07 1.46,1.46 0 0 1 -0.44,1.06 l -0.31,0.23 a 1.59,1.59 0 0 1 -0.77,0.21 3,3 0 0 1 -0.6,0 2.87,2.87 0 0 1 -0.65,-0.12 2.27,2.27 0 0 1 -0.88,-0.5 2.67,2.67 0 0 1 -0.57,-0.73 3.48,3.48 0 0 1 -0.4,-1 2.39,2.39 0 0 1 0,-1.3 2.45,2.45 0 0 1 0.26,-0.54 2.8,2.8 0 0 1 0.41,-0.5 2.93,2.93 0 0 1 0.5,-0.34 2.3,2.3 0 0 1 1.28,-0.27 2.45,2.45 0 0 1 1.31,0.41 4,4 0 0 1 0.51,0.41 4,4 0 0 1 0.39,0.56 3.18,3.18 0 0 1 0.26,0.64 A 1.61,1.61 0 0 1 44.3,33.25 1.53,1.53 0 0 1 41.48,33 Z" />
  </g>
  <path
     style="stroke-width:1.54309"
     id="path18"
     d="m 21.989319,9.3444145 a 2.3146364,2.3146364 0 0 0 0,-4.6292726 2.3146364,2.3146364 0 0 0 0,4.6292726 z" />
  <path
     style="stroke-width:1.54309"
     id="path20"
     d="M 24.010768,8.1562345 H 25.22981 A 1.7745545,1.7745545 0 0 0 26.124803,7.9556327 2.0986035,2.0986035 0 0 0 27.343845,6.736591 1.8054163,1.8054163 0 0 0 27.544447,5.8415983 V 5.2243619 a 2.360929,2.360929 0 0 0 -0.601806,-1.01844 L 26.479714,3.8355801 A 2.4226526,2.4226526 0 0 0 25.306965,3.526962 h -1.296197 a 1.5430908,1.5430908 0 0 0 -0.879561,0.2006018 2.0677417,2.0677417 0 0 0 -1.234473,1.2190418 1.9597254,1.9597254 0 0 0 -0.200602,0.8949927 l 0.09258,0.6172363 a 2.4226526,2.4226526 0 0 0 0.586376,1.01844 l 0.478359,0.3549108 a 2.191189,2.191189 0 0 0 1.157317,0.3240491 z" />
  <path
     style="stroke-width:1.54309"
     id="path22"
     d="M 31.047263,3.0486038 25.121794,1.9993021 a 19.180619,19.180619 0 0 0 -3.086182,-0.4937892 3.2559217,3.2559217 0 0 0 -3.194198,2.2992054 17.529512,17.529512 0 0 0 -0.35491,3.0861818 l -0.293187,3.1787669 -0.509221,6.079778 a 2.3146363,2.3146363 0 0 0 2.314637,2.314636 2.360929,2.360929 0 0 0 2.314635,-2.314636 L 23.285516,5.6564273 c 0,-0.2006018 0,-0.4166344 0,-0.6172363 0,-0.2006018 -0.09258,0.2314637 -0.138878,0.3394799 a 1.2961963,1.2961963 0 0 1 -1.049302,0.7098219 c -0.200602,0 -0.200602,0 0,0 h 0.216032 c -0.324049,0 -0.385772,0 -0.16974,0 0.817839,0.2006018 1.666538,0.3086181 2.499808,0.4474963 l 5.215646,0.9258546 A 2.3146363,2.3146363 0 1 0 31.078124,3.002311 Z" />
</svg>
