<?xml version="1.0" encoding="UTF-8" standalone="no"?>
<svg
   xmlns:dc="http://purl.org/dc/elements/1.1/"
   xmlns:cc="http://creativecommons.org/ns#"
   xmlns:rdf="http://www.w3.org/1999/02/22-rdf-syntax-ns#"
   xmlns:svg="http://www.w3.org/2000/svg"
   xmlns="http://www.w3.org/2000/svg"
   xmlns:sodipodi="http://sodipodi.sourceforge.net/DTD/sodipodi-0.dtd"
   xmlns:inkscape="http://www.inkscape.org/namespaces/inkscape"
   width="30pt"
   height="30pt"
   viewBox="0 0 30 30"
   version="1.1"
   id="svg13"
   sodipodi:docname="glowtip.svg"
   inkscape:version="0.92.4 (5da689c313, 2019-01-14)">
  <metadata
     id="metadata19">
    <rdf:RDF>
      <cc:Work
         rdf:about="">
        <dc:format>image/svg+xml</dc:format>
        <dc:type
           rdf:resource="http://purl.org/dc/dcmitype/StillImage" />
      </cc:Work>
    </rdf:RDF>
  </metadata>
  <defs
     id="defs17" />
  <sodipodi:namedview
     pagecolor="#ffffff"
     bordercolor="#666666"
     borderopacity="1"
     objecttolerance="10"
     gridtolerance="10"
     guidetolerance="10"
     inkscape:pageopacity="0"
     inkscape:pageshadow="2"
     inkscape:window-width="2560"
     inkscape:window-height="1355"
     id="namedview15"
     showgrid="false"
     inkscape:zoom="16.68772"
     inkscape:cx="11.308483"
     inkscape:cy="25.190259"
     inkscape:window-x="0"
     inkscape:window-y="26"
     inkscape:window-maximized="1"
     inkscape:current-layer="svg13" />
  <g
     id="surface1"
     transform="matrix(1.0302967,0,0,1.0302967,1.24324,0.2143034)">
    <path
       style="fill:#000000;fill-opacity:1;fill-rule:nonzero;stroke:none"
       d="m 3.140625,27.628906 c 3.1270613,-0.793221 6.2546748,-2.587542 7.932542,-5.373794 2.088882,-3.468779 2.821768,-5.049426 3.704844,-7.532669 0.75762,-2.130456 -1.782125,-2.794637 -2.567372,-0.837571 -0.951611,2.371692 -1.494345,3.513087 -2.8814627,6.179799 -0.8841437,1.699753 -2.2990438,3.233856 -6.6854833,5.086877 -2.12318487,0.896925 -1.4175785,2.962999 0.496932,2.477358 z"
       id="path2"
       inkscape:connector-curvature="0"
       sodipodi:nodetypes="sssssss" />
    <path
       style="fill:#000000;fill-opacity:1;fill-rule:nonzero;stroke:none"
       d="m 15.519531,12 c 0.828125,0 1.5,-0.671875 1.5,-1.5 0,-0.828125 -0.671875,-1.5 -1.5,-1.5 -0.828125,0 -1.5,0.671875 -1.5,1.5 0,0.828125 0.671875,1.5 1.5,1.5 z m 0,0"
       id="path4"
       inkscape:connector-curvature="0" />
    <path
       style="fill:#000000;fill-opacity:1;fill-rule:nonzero;stroke:none"
       d="m 17.601562,8.199219 c 0.828126,0 1.5,-0.671875 1.5,-1.5 0,-0.828125 -0.671874,-1.5 -1.5,-1.5 -0.828124,0 -1.5,0.671875 -1.5,1.5 0,0.828125 0.671876,1.5 1.5,1.5 z m 0,0"
       id="path6"
       inkscape:connector-curvature="0" />
    <path
       style="fill:#000000;fill-opacity:1;fill-rule:nonzero;stroke:none"
       d="m 20.359375,5.578125 c 0.828125,0 1.5,-0.667969 1.5,-1.5 0,-0.828125 -0.671875,-1.5 -1.5,-1.5 -0.828125,0 -1.5,0.671875 -1.5,1.5 0,0.832031 0.671875,1.5 1.5,1.5 z m 0,0"
       id="path8"
       inkscape:connector-curvature="0" />
    <path
       style="fill:#000000;fill-opacity:1;fill-rule:nonzero;stroke:none"
       d="m 23.859375,4 c 0.828125,0 1.5,-0.671875 1.5,-1.5 0,-0.828125 -0.671875,-1.5 -1.5,-1.5 -0.828125,0 -1.5,0.671875 -1.5,1.5 0,0.828125 0.671875,1.5 1.5,1.5 z m 0,0"
       id="path10"
       inkscape:connector-curvature="0" />
  </g>
</svg>
