<?xml version="1.0" encoding="UTF-8" standalone="no"?>
<svg
   xmlns:dc="http://purl.org/dc/elements/1.1/"
   xmlns:cc="http://creativecommons.org/ns#"
   xmlns:rdf="http://www.w3.org/1999/02/22-rdf-syntax-ns#"
   xmlns:svg="http://www.w3.org/2000/svg"
   xmlns="http://www.w3.org/2000/svg"
   xmlns:sodipodi="http://sodipodi.sourceforge.net/DTD/sodipodi-0.dtd"
   xmlns:inkscape="http://www.inkscape.org/namespaces/inkscape"
   width="30pt"
   height="30pt"
   viewBox="0 0 30 30"
   version="1.1"
   id="svg7"
   sodipodi:docname="listeningmode.svg"
   inkscape:version="0.92.4 (5da689c313, 2019-01-14)">
  <metadata
     id="metadata13">
    <rdf:RDF>
      <cc:Work
         rdf:about="">
        <dc:format>image/svg+xml</dc:format>
        <dc:type
           rdf:resource="http://purl.org/dc/dcmitype/StillImage" />
      </cc:Work>
    </rdf:RDF>
  </metadata>
  <defs
     id="defs11" />
  <sodipodi:namedview
     pagecolor="#ffffff"
     bordercolor="#666666"
     borderopacity="1"
     objecttolerance="10"
     gridtolerance="10"
     guidetolerance="10"
     inkscape:pageopacity="0"
     inkscape:pageshadow="2"
     inkscape:window-width="2560"
     inkscape:window-height="1355"
     id="namedview9"
     showgrid="false"
     inkscape:zoom="16"
     inkscape:cx="27.519921"
     inkscape:cy="17.231084"
     inkscape:window-x="0"
     inkscape:window-y="26"
     inkscape:window-maximized="1"
     inkscape:current-layer="svg7" />
  <g
     id="surface1"
     transform="matrix(1.1287027,0,0,1.1287027,-2.2454907,-2.0122704)">
    <path
       style="fill:#000000;fill-opacity:1;fill-rule:nonzero;stroke:none"
       d="m 8.078125,12.449219 c 0.7644003,-3.0023153 3.713354,-5.1922812 6.652344,-6 1.624205,-0.4463781 3.361457,-0.3837252 4.871093,0.371093 1.584625,0.7923126 2.120643,2.460185 2.476563,4.101563 1.6558,7.63597 -4.206563,9.75565 -9.531518,13.646126 -1.554091,1.135439 -0.20658,3.233888 1.357994,2.29055 C 19.55908,23.449261 23.8034,22.018598 25.089844,14.871094 25.686213,11.557655 25.461769,7.2565547 24.49014,3.5423584 20.908178,2.852895 15.672861,2.7837358 12.601562,4 9.2119217,5.3423306 6.1114817,8.000529 5.191406,11.660156 c -0.4705497,1.871625 2.4089232,2.665689 2.886719,0.789063 z"
       id="path2"
       inkscape:connector-curvature="0"
       sodipodi:nodetypes="ssssssscsss" />
    <path
       style="fill:#000000;fill-opacity:1;fill-rule:nonzero;stroke:none"
       d="m 9.851562,20.410156 c 0.318845,0.297569 0.701867,0.38711 1.058594,0.441406 0.194474,0.0296 0.394,0.01847 0.589844,0 0.218338,-0.0206 0.43072,-0.0474 0.640625,-0.113281 0.325295,-0.102101 0.61755,-0.276943 0.871094,-0.507812 0.226926,-0.206632 0.405523,-0.459795 0.558593,-0.730469 0.167544,-0.296266 0.300492,-0.611482 0.390626,-0.941406 0.116946,-0.428064 0.130079,-0.880416 0,-1.308594 -0.05745,-0.189108 -0.145466,-0.372927 -0.25,-0.539062 -0.114247,-0.181572 -0.251794,-0.346006 -0.410157,-0.492188 -0.146358,-0.1351 -0.313618,-0.243981 -0.492187,-0.339844 -0.192548,-0.103368 -0.401636,-0.186964 -0.617188,-0.230468 -0.210283,-0.04244 -0.425765,-0.05828 -0.640625,-0.04688 -0.226546,0.01202 -0.454728,0.04152 -0.671875,0.109376 -0.220484,0.0689 -0.4258,0.171846 -0.617187,0.300781 -0.179707,0.121065 -0.3534899,0.256237 -0.5,0.417969 -0.1544629,0.170511 -0.2804817,0.361495 -0.390625,0.558593 -0.1125406,0.201388 -0.1934949,0.41743 -0.25,0.640625 -0.099749,0.394008 -0.1722415,0.920578 0.148437,1.160156 3.246982,2.425807 3.070395,-2.466297 0.082031,0.521484 -0.3537991,0.35373 0.2539585,0.86999 0.5,1.099614 z"
       id="path4"
       inkscape:connector-curvature="0"
       sodipodi:nodetypes="sssssssssssssssssssss" />
  </g>
</svg>
