<?xml version="1.0" encoding="UTF-8" standalone="no"?>
<!-- Created with Inkscape (http://www.inkscape.org/) -->

<svg
   xmlns:dc="http://purl.org/dc/elements/1.1/"
   xmlns:cc="http://creativecommons.org/ns#"
   xmlns:rdf="http://www.w3.org/1999/02/22-rdf-syntax-ns#"
   xmlns:svg="http://www.w3.org/2000/svg"
   xmlns="http://www.w3.org/2000/svg"
   xmlns:sodipodi="http://sodipodi.sourceforge.net/DTD/sodipodi-0.dtd"
   xmlns:inkscape="http://www.inkscape.org/namespaces/inkscape"
   width="48"
   height="48"
   viewBox="0 0 12.7 12.7"
   version="1.1"
   id="svg8"
   inkscape:version="0.92.3 (2405546, 2018-03-11)"
   sodipodi:docname="digitail.svg"
   inkscape:export-filename="/home/leinir/projects/DIGITAiL/digitail.png"
   inkscape:export-xdpi="320"
   inkscape:export-ydpi="320">
  <defs
     id="defs2" />
  <sodipodi:namedview
     id="base"
     pagecolor="#ffffff"
     bordercolor="#666666"
     borderopacity="1.0"
     inkscape:pageopacity="0.0"
     inkscape:pageshadow="2"
     inkscape:zoom="29.458333"
     inkscape:cx="24"
     inkscape:cy="29.232319"
     inkscape:document-units="mm"
     inkscape:current-layer="layer1"
     showgrid="false"
     units="px"
     inkscape:window-width="1920"
     inkscape:window-height="991"
     inkscape:window-x="0"
     inkscape:window-y="30"
     inkscape:window-maximized="1" />
  <metadata
     id="metadata5">
    <rdf:RDF>
      <cc:Work
         rdf:about="">
        <dc:format>image/svg+xml</dc:format>
        <dc:type
           rdf:resource="http://purl.org/dc/dcmitype/StillImage" />
        <dc:title></dc:title>
      </cc:Work>
    </rdf:RDF>
  </metadata>
  <g
     inkscape:label="Layer 1"
     inkscape:groupmode="layer"
     id="layer1"
     transform="translate(0,-284.3)">
    <g
       transform="matrix(0.04398967,0,0,-0.04398967,0.02222193,295.14321)"
       inkscape:label="ink_ext_XXXXXX"
       id="g823">
      <g
         transform="scale(0.1)"
         id="g825">
        <path
           inkscape:connector-curvature="0"
           id="path827"
           style="fill:#231f20;fill-opacity:1;fill-rule:nonzero;stroke:none"
           d="m 1981.29,744.07 c 0,0 -97.28,79.731 241.8,583.72 12.96,74.66 -75.61,143.23 -120.87,170.26 -45.26,27.02 -160.71,113.5 -130.01,162.15 30.71,48.64 9.08,56.74 9.08,56.74 0,0 -18.91,-51.35 -35.12,-54.05 -16.22,-2.69 -21.62,13.52 -21.62,13.52 v 105.39 c 0,0 89.17,-18.92 124.3,-10.82 35.14,8.11 99.99,35.13 135.13,24.32 -5.41,13.52 143.22,178.37 170.24,245.93 13.52,-89.18 40.55,-240.52 37.85,-240.52 27.01,0 151.32,-32.42 170.25,-27.02 18.91,5.4 278.35,89.18 324.29,81.08 -2.72,-18.93 -216.19,-313.49 -227.01,-345.91 -10.82,-32.43 18.91,-486.43 -18.92,-564.809 8.1,-56.762 51.35,-532.371 45.94,-589.121 37.85,-10.821 60.26,-13.5 60.26,-81.071 -13.52,-59.461 -86.46,-51.347 -113.5,-43.25 -27.03,8.11 -14.32,105.403 -19.72,175.672 2.7,-37.84 -12.16,-106.761 -12.16,-106.761 0,0 -68.91,-33.77 -87.83,6.769 -67.56,8.102 -167.56,-32.43 -229.71,-32.43 -5.4,-18.929 -23.34,-29.418 9.46,-48.648 39.19,-22.973 31.08,-62.152 31.08,-62.152 0,0 4.05,-18.918 -140.52,-13.52 -64.87,2.422 -116.21,16.223 -54.04,82.43 35.11,20.269 -0.02,39.179 -0.02,39.179 0,0 -54.05,-45.937 -89.18,-21.609 -35.12,24.32 -80.32,21.621 -68.53,89.18 -31.45,29.722 -63.88,37.82 -63.88,37.82 0,0 -257.95,-586.508 -1258.209,-295.5273 C 306.371,181.012 104.469,645.441 3.14063,807.59 -25.6484,853.641 138.902,579.359 686.852,530.59 1093.28,494.398 1239.49,973.789 1981.29,744.07" />
        <path
           inkscape:connector-curvature="0"
           id="path829"
           style="fill:#231f20;fill-opacity:1;fill-rule:nonzero;stroke:none"
           d="m 545.469,1404.05 c 2.445,4.14 10.043,15.03 16.543,12.56 5.023,-1.91 3.894,-16.28 3.371,-20.03 -2.633,-18.87 -11.207,-37.5 -20.055,-54.18 -8.332,-15.7 -17.203,-32.72 -28.789,-46.3 1.934,18.57 9.207,74.6 28.93,107.95 z m 149.844,-80.93 c 3.582,-5.7 -4.192,-16.36 -7.348,-20.8 -5.969,-8.37 -16.781,-12.07 -25.485,-16.76 1.157,10.46 8.266,37.33 32.833,37.56 -0.215,0.34 -0.805,1.26 0,0 3.042,-4.83 -0.981,1.55 0,0 z m 92.32,-10.92 c 0.34,1.5 -3.75,8.93 -6.039,9.35 -6.067,1.13 -10.824,-6.12 -14.344,-9.8 -18.105,-18.88 -53.062,-41.84 -65.887,-44.12 -6.66,-1.19 -19.398,-3.74 -25.093,1.17 -4.375,3.78 11.406,13.93 13.918,16 8.718,7.22 18.464,17.94 20.582,29.39 4.726,25.6 -32.172,27.9 -46.313,15.67 -9.289,-8.02 -16.535,-20.64 -19.602,-32.43 -1.785,-6.89 -1.089,-13.5 0.668,-20.3 1.922,-7.48 -0.363,-7.33 -6.21,-12.55 -10.512,-9.4 -20.036,-19.82 -32.59,-26.62 -8.95,-4.86 -20.274,-11.38 -16.098,3.45 4.016,14.25 22.305,63.34 -11.273,55.79 -26.758,-6.01 -46.172,-31.44 -65.551,-48.79 -2.922,10.84 34.75,49.48 43.148,61.55 8.774,12.61 30.985,41.36 34.746,84.12 1.211,13.79 1.797,26.53 -10.488,35.74 3.156,12.29 -20.223,9.89 -26.328,7.93 -14.195,-4.57 -257.324,-79.95 -249.441,-97.02 2.863,-6.19 13.484,-8.48 19.425,-9.59 11.668,-2.17 98.867,24 120.883,31.12 -12.023,-52.59 -38.976,-199.74 -44.141,-221.12 -4.109,-16.98 30.364,-13.25 33.793,1.47 12.106,52.1 44.055,228.74 46.911,232.46 12.769,5.73 20.191,8.05 26.949,10.44 -12.524,-23.59 -14.461,-38.11 -18.735,-64.4 -4.671,-28.75 -3.699,-57.61 -5.566,-86.54 -0.539,-8.39 -1.219,-19.4 8.258,-23.02 6.957,-2.66 15.633,-0.71 21.781,3.13 9.629,6.01 15.496,17.73 23.192,25.85 9.703,10.23 19.871,20.02 30.511,29.28 -6.703,-13.71 -16.031,-39.89 -1.726,-52 20.672,-17.49 57.734,5.09 74.515,18.05 5.45,4.21 11.047,8.53 15.961,13.36 6.395,6.27 5.715,3.77 13.946,1.71 16.433,-4.13 34.628,-0.74 50.339,4.75 15.653,5.47 28.985,14.13 41.297,25.14 9.293,8.32 23.789,17.63 24.602,31.38 -0.133,0.46 -0.735,-12.52 0,0" />
        <path
           inkscape:connector-curvature="0"
           id="path831"
           style="fill:#231f20;fill-opacity:1;fill-rule:nonzero;stroke:none"
           d="m 1194.29,1326.43 c 11.06,8.65 21.68,15.21 18.33,29.16 -5,20.84 -9.31,19.14 -15,20.84 -28.39,8.48 -68.49,-7.59 -95.05,-17.05 -62.21,-22.15 -710.984,-251.13 -719.793,-258.31 -6.66,-5.43 -12.609,-18.26 -9.894,-26.83 2.945,-9.29 22.976,-27.88 31.41,-31.15 21.77,-8.46 394.164,126.33 408.305,129.61 -19.141,-51.27 -153.328,-569.091 -150.141,-580.962 2.602,-9.679 14.422,-7.449 21.856,-6.449 13.476,1.832 27.164,1.371 40.429,4.789 10.27,2.641 24.051,6.094 28.758,16.774 5.266,11.949 160.27,597.918 167.457,601.238 29.363,13.58 268.143,114.26 273.333,118.34" />
        <path
           inkscape:connector-curvature="0"
           id="path833"
           style="fill:#231f20;fill-opacity:1;fill-rule:nonzero;stroke:none"
           d="m 1503.36,1147.85 c 13.73,4.83 21.55,19.84 28.42,31.59 5.67,9.7 16.33,27.55 8.64,38.68 -6.53,9.45 -24.69,10.81 -34.95,11.1 -26.97,0.75 -40.98,-16.24 -54.92,-37.36 -41.26,-62.52 38.2,-49.15 52.81,-44.01" />
        <path
           inkscape:connector-curvature="0"
           id="path835"
           style="fill:#231f20;fill-opacity:1;fill-rule:nonzero;stroke:none"
           d="m 1035.56,981.02 c 10.3,10.699 21.84,21.6 36.71,25.21 6.78,1.66 15.78,2.47 22.39,-0.28 6.64,-2.75 0.41,-9.669 -1.87,-13.239 -20.91,-32.731 -33.67,-69.16 -51.81,-103.211 -5.1,-9.57 -12.63,-19.012 -21.13,-25.789 -11.5,-9.18 -14.8,7.82 -15.68,16.891 -3.26,33.609 7,75.847 31.39,100.418 15.3,15.91 -12.66,-12.758 0,0 z m 881.23,492.07 c 17.5,-8.33 -10.14,-84.9 -15.42,-96.66 -11.7,-26.08 -77.66,-126.82 -92.91,-147.19 -17.02,-22.68 -31.96,-44.3 -42.72,-43.22 -24.78,2.49 22.87,106.57 44.8,155.82 0,0 70.83,135 106.25,131.25 z m -261.84,-399.21 c -1.75,-5.72 -4.12,-30.2 -8.18,-35.62 -17.55,-23.43 -37.56,-45.119 -59.76,-64.209 -20.5,-17.629 -115.91,-61.301 -119.51,-37.789 -2.44,16 33.55,106.908 38.04,120.088 3.7,10.86 4.94,21.84 -6.18,28.42 -11.52,6.81 -22.39,7.97 -35.19,4.59 -11.61,-3.07 -24.13,-3.35 -35.32,-7.85 -12.23,-4.91 -21.24,-16.91 -26.26,-28.71 -2.49,-5.86 -64.13,-110.538 -93.57,-134.722 -21.13,-17.367 -42.55,-36.469 -67.91,-47.156 -10.5,-4.434 -25.91,-10.203 -37.38,-6.524 -8.98,2.872 -17.59,15.043 -23.04,22.731 -15.15,21.383 4.97,116.981 5.43,132.251 0.35,11.69 -5.89,16.38 -15.16,21.92 -4.74,2.83 -10.05,5.7 -15.76,4.9 -4.78,-0.67 -9.36,-5.12 -14.1,-4.41 -4.4,0.66 -8.18,3.62 -12.5,4.48 -30.14,5.99 -74.26,-2.91 -97.58,-11.67 -51.043,-19.15 -87.231,-57.12 -101.457,-109.998 -7.047,-26.18 -7.223,-51.571 5.968,-75.954 11.364,-20.988 29.215,-33.386 53.192,-35.187 23.057,-1.731 48.007,4.328 67.647,16.461 22.52,13.906 31.99,38.316 51.94,54.449 -0.06,-13.191 4.77,-25.383 13.16,-35.473 9.01,-10.828 17.73,-22.66 31.41,-27.628 27.01,-9.809 59.96,-3.911 86.93,3.339 58.31,15.68 108.11,54.563 148.32,98.43 11.66,-20.469 35.93,-30.93 58.16,-34.918 29.48,-5.281 59.83,-0.633 87.82,9.328 51.58,18.352 97,52.34 133.62,92.61 5.73,-23.629 18.34,-40.11 23.27,-44.528 71.62,-64.101 154.39,-12 190.79,10.481 37.71,23.289 124.83,121.058 138.33,137.918 10.32,12.87 20.42,31.66 16.26,44.94 -3.3,10.54 -13.89,16.27 -24.48,15.12 -12.86,-1.39 -22.18,-11.53 -30.13,-20.78 -20.1,-23.44 -39.87,-47.16 -60.89,-69.79 -20.14,-21.69 -85.34,-74.908 -104.91,-79.17 -13.89,-3.02 -73.24,0.68 -77.93,17.6 -5.59,20.18 -10.99,54.08 5.79,70.98 18.58,18.71 36.75,38.08 54.27,57.86 4.84,5.48 219.52,216.57 179.42,354.7 -2.65,9.13 -12.4,40.28 -49.11,40.1 -58.64,-0.28 -120.79,-55.73 -158.3,-115.75 -11.33,-18.13 -36.15,-70.95 -41.16,-82.91 -67.85,-162.1 -74,-252.95 -74,-252.95" />
        <path
           inkscape:connector-curvature="0"
           id="path837"
           style="fill:#ffffff;fill-opacity:1;fill-rule:nonzero;stroke:none"
           d="m 786.625,228.52 c -4.555,-2.61 -8.594,-6.969 -11.984,-10.829 -9.629,-11 -18.743,-23.992 -30.348,-32.929 -10.082,-7.774 -43.973,-11.93 -60.184,7.976 -27.582,33.883 -26.558,85.852 -24.054,127.082 1.633,26.989 6.246,54.032 15.468,79.508 7.668,21.203 20.993,54.551 44.973,61.582 27.352,8.031 43.649,-28.609 50.231,-48.762 1.211,-3.707 2.781,-15.117 6.429,-14.5 4.563,0.774 9.453,-0.25 13.86,1.473 11.343,4.449 3.277,47.731 -9.801,62.859 -7.785,9.02 -14.695,17.442 -26.629,20.372 -22.965,5.628 -47.707,-3.043 -66.027,-16.832 -30.954,-23.301 -56.516,-62.661 -64.688,-100.34 -4.086,-18.871 -9.058,-39.571 -11.25,-58.75 -3.328,-29.168 2.91,-55.86 9.164,-82.5 5.945,-25.328 18.699,-47.539 39.742,-64.078 21.696,-17.051 49.664,-18.454 75.043,-9.442 25.871,9.192 47.535,30.668 63.778,53.27 13.945,19.41 -4.153,27.16 -3.438,27.558 -0.715,-0.398 -3.039,1.442 -10.285,-2.718" />
        <path
           inkscape:connector-curvature="0"
           id="path839"
           style="fill:#ffffff;fill-opacity:1;fill-rule:nonzero;stroke:none"
           d="m 852.559,273.281 c -5.223,2.328 -6.371,11.207 -7.047,16.27 -0.301,2.277 -2.215,13.879 2.258,13.781 3.757,-0.07 8.757,-2.582 12.519,-3.453 1.211,-0.277 9.949,-5.719 10.387,-6.598 -3.278,-5.383 -11.5,-22.961 -18.117,-20 z m 19.289,47.559 c -9.282,0 -13.844,13.851 -12.977,21.398 0.461,4.012 3.856,21.992 11.145,16.352 5.488,-4.238 12.367,-37.75 1.832,-37.75 z m 330.762,-2.551 c 4.54,-26.5 1.73,-111.648 -15.52,-133.5 -20.56,59.813 7.41,122.16 15.52,133.5 z m 200.07,127.871 c -0.58,-2.34 -3.82,-18.91 -8.22,-17.73 -5.06,1.359 -6.43,15.699 -6.95,19.8 -1.79,14 -1.76,32.469 6.03,44.821 3.24,5.109 8.25,11.219 14.72,11.719 3.51,0.269 11.27,-1.34 8.11,-6.418 -4.82,-13.391 -9.4,-34.571 -13.69,-52.192 z m 356.04,-99.449 c -3.53,-6.652 -15.47,-30.699 -25.04,-33.961 -9.04,-2.719 -11.83,10.141 -12.83,16.371 -4.24,26.66 6,50.879 16.59,74.918 6.7,15.191 35.47,68.313 47.72,74.422 7.93,-15.57 -8.89,-98.641 -26.44,-131.75 z m 119.68,276.867 c -15.47,-2.258 -20.77,-14.617 -24.01,-20.808 -9.66,-18.43 -24.05,-38.301 -38.64,-53.098 -4.22,12.547 0.82,27.988 -4.84,39.859 -3.88,8.16 -17.19,8.758 -24.29,5.168 -10.15,-5.129 -16.81,-11.289 -21.51,-21.937 -5.79,-13.082 -10.83,-26.211 -18.68,-38.262 -1.06,-1.629 -7.51,-11.629 -10.22,-9.73 -2.32,1.628 -2.88,6.101 -3.62,8.628 -4.35,14.911 -2.75,30.743 1.87,45.383 8.33,26.449 -24.22,24.418 -32.47,4.707 -4.94,-11.797 -1.91,-24.039 -9.22,-34.937 -8.63,-12.832 -19.08,-24.153 -29.53,-35.481 -5.21,-5.66 -16.77,-19.922 -25.94,-16.34 -7.43,2.891 -9.66,14.629 -10.84,21.469 -2.17,12.582 -3.51,25.75 -3.49,38.512 0.03,12.758 -6.38,18.801 -19.28,15.449 -9.7,-2.519 -16.97,-6.648 -21.88,-15.68 -7.32,-13.46 -16.16,-26.011 -24.14,-39.082 -0.69,8.672 -2.37,20.204 -11.97,23.364 -7.77,2.558 -17.85,1.187 -20.71,-7.453 -3.21,-9.668 1.43,-20.149 -1.69,-29.411 -3.9,-11.597 -8.65,-22.867 -14.39,-33.687 -7.95,-14.949 -19.02,-34.59 -37.27,-38 -17.01,-3.172 -17.61,20.07 -18.13,31.777 -0.62,13.953 -1.53,27.481 -3.48,41.364 -1.28,9.187 -1.87,16.328 -12.13,19.41 -4.09,1.226 -6.75,-2.492 -10.57,-0.961 -5.77,2.32 -12.18,2.488 -18.27,1.578 -45.81,-6.867 -48.73,-45.66 -51.13,-46.848 -4.81,-2.402 -9.36,-5.679 -14.12,-8.34 -11.88,-6.64 -23.91,-13.671 -34.43,-22.339 -5.16,9.418 -9.8,23.679 -22.12,25.48 -16.93,2.477 -33.63,-10.102 -45.2,-20.852 -0.04,13.61 3.06,31.622 -6,43.2 -4.67,6 -12.54,6.879 -19.06,3.23 -8.7,-4.871 -7.78,-17.832 -7.42,-26.301 0.53,-12.269 0.69,-24.597 0.63,-36.879 -0.03,-6.57 -0.2,-13.14 -0.6,-19.699 -0.24,-4.383 -4.18,-7.043 -6.61,-10.23 -13.92,-18.262 -28,-35.821 -42.78,-53.43 -15.33,-18.269 -29.97,-1.641 -34.66,15.981 -2.06,7.699 -3.53,15.628 -4.43,23.546 -0.77,6.852 0.42,13.711 -0.39,20.532 -2.46,20.582 -30.68,8.871 -39.68,-0.02 -2.92,-2.89 -25.38,-26.832 -22.56,-31.351 -2.28,1.441 -2.26,4.761 -3.59,6.851 -1.97,3.09 -5.56,4.539 -9.01,5.149 -9.85,1.761 -18.81,-1.797 -26.78,-7.379 -7.85,-5.481 -14.74,-12.141 -20.651,-19.649 -5.383,-6.84 -8.836,-15.859 -15.731,-21.383 0.094,1.672 0.16,28.954 -2.062,34.243 -6.43,15.289 -20.305,10.808 -24.809,-2.692 -4.031,-12.109 -1.371,-23.988 -10.207,-34.301 -8.472,-9.878 -18.027,-17.058 -30.238,-21.609 -12.899,-4.809 -7.402,13.473 -8.281,21.52 -1.375,12.55 -7.86,24.121 -18.797,30.742 -21.125,12.769 -45.36,-2.371 -55.371,-22.039 -5.086,-10.012 -6.297,-19.211 -3.407,-29.821 0.887,-3.242 2.891,-6.441 -0.851,-7.902 -4.399,-1.719 -9.461,-1.937 -13.57,-4.379 -7.512,-4.469 -6.125,-17.16 -5.204,-24.519 1.247,-9.942 4.664,-20.219 11.45,-27.789 16.07,-17.922 43.613,-7.883 58.683,6.097 8.301,7.692 11.973,16.403 16.035,26.641 5.274,13.289 20.18,9.601 31.688,13.512 6.598,2.238 12.867,5.418 18.644,9.296 -1.367,-8.386 -4.425,-17.308 -2.488,-25.859 3.102,-13.687 22.692,-5.93 29.934,-0.551 12.187,9.082 19.465,23.602 26.903,36.453 4.06,7.02 8.53,13.778 12.68,20.75 4.08,6.848 6.49,15.739 11.52,21.899 5.24,6.422 3.55,-19.52 3.09,-22.692 -1.37,-9.589 -1.35,-22.199 11.98,-19.546 15.12,3.007 23.43,10.109 30.44,23.609 6.96,13.418 10.36,29.559 19.69,41.59 1.67,-5.539 3.55,-30.879 5.86,-37.121 4.46,-12.032 13.09,-22.309 25.74,-25.981 23.49,-6.801 49.46,9.102 65.77,24.731 -5.94,-11.879 -7.83,-25.481 -11.74,-38.078 -4.74,-15.223 -9.04,-30.454 -11.72,-46.18 -5.19,-30.492 -7,-59.703 -1,-90.184 1.75,-8.879 4.3,-23.769 14.9,-26.269 10.55,-2.489 21.07,7.351 26.51,15.23 15.28,22.16 18.51,50.223 21.54,76.27 3.8,32.633 5.28,65.472 8.36,98.172 1.4,14.808 2.84,29.64 3.01,44.531 0.15,14.027 1.16,26.898 7.83,39.5 5.35,10.098 32.81,48.558 37.2,19.137 1.51,-10.11 -1.23,-19.618 -6.45,-28.34 -6.89,-11.5 -19.15,-19.938 -24.9,-31.918 -2.12,-4.41 -2.29,-9.723 1.32,-13.461 4.7,-4.871 11.8,-1.34 16.96,0.801 12.99,5.39 23.5,14.64 30.41,26.898 5.82,10.34 5.92,26.02 15.19,33.949 12.32,10.563 26.13,19.274 40.34,27.051 -0.2,-15.969 5.44,-40.379 20.33,-49.07 8.78,-5.117 22.06,-2.008 30.53,2.371 14.19,7.34 14.01,21.75 22.57,33.32 3.22,-20.551 20.49,-35.808 41.63,-33.121 24.59,3.133 43.21,22.621 56.26,42.281 2.64,-8.308 13.47,-6.582 19.94,-5.019 9.48,2.301 15.22,7.48 18.48,16.648 4.58,12.852 8.01,26.02 13.05,38.731 3.65,9.211 5.97,21.129 14.48,27.308 4.57,-17.707 5.94,-48.019 28.21,-52.929 31.26,-6.899 60.47,24.461 77.5,46.171 3.66,-17.691 18.43,-23.41 35.02,-20.8 24.42,3.859 31.62,25.019 46.59,40.711 2.6,-10.411 6.69,-23.422 -1.01,-32.719 -9.53,-11.5 -19.61,-22.613 -27.7,-35.203 -16.03,-24.93 -34.46,-48.52 -46.4,-75.84 -11.09,-25.391 -22.59,-56.149 -11.13,-83.449 9.2,-21.918 32.45,-29.2 53.12,-18.09 22.36,12.019 34.48,35.48 45.08,57.449 11.39,23.602 21.59,49.012 23.36,75.43 1.18,17.57 2.46,35.59 2.75,53.172 0.21,12.109 -3.1,24.359 2.43,35.789 5.64,11.66 17.02,20.172 24.66,30.511 8.98,12.161 17.34,25.039 25.18,37.957 4.13,6.801 18.42,37.43 8.15,35.93" />
      </g>
    </g>
  </g>
</svg>
