<?xml version="1.0" encoding="UTF-8"?>
<svg id="svg5" xmlns="http://www.w3.org/2000/svg" viewBox="0 0 30 30">
  <defs>
    <style>
      .cls-1 {
        stroke-width: 0px;
      }
    </style>
  </defs>
  <g id="surface1">
    <path id="path2" class="cls-1" d="m11.35,19.94c.81.99,1.99,1.96,3.13,1.08.96-.74,1.18-2.41,1.24-3.66.06-1.46-.18-2.9-.23-4.35,0-.95.07-2.33,1.15-1.99,1.08.34,1.79,1.69,2.34,2.62.67,1.12,1.21,2.35,1.61,3.64.43,1.39,2.31.78,1.88-.62-.75-2.7-2.09-5.11-3.88-6.99-.88-.95-2.1-1.29-3.24-.89-1,.48-1.69,1.6-1.78,2.89-.16,2.26.43,4.14.19,6.21-.16,1.03-.73.66-.95.51-.9-.9-1.28-1.54-1.84-2.78-.65-1.2-1.18-2.47-1.72-3.73-.54-1.26-2.25-.15-1.68,1.17,1.09,2.44,2.42,5.04,3.76,6.86Z"/>
  </g>
</svg>