<?xml version="1.0" encoding="UTF-8" standalone="no"?>
<svg
   xmlns:dc="http://purl.org/dc/elements/1.1/"
   xmlns:cc="http://creativecommons.org/ns#"
   xmlns:rdf="http://www.w3.org/1999/02/22-rdf-syntax-ns#"
   xmlns:svg="http://www.w3.org/2000/svg"
   xmlns="http://www.w3.org/2000/svg"
   xmlns:sodipodi="http://sodipodi.sourceforge.net/DTD/sodipodi-0.dtd"
   xmlns:inkscape="http://www.inkscape.org/namespaces/inkscape"
   width="30pt"
   height="30pt"
   viewBox="0 0 30 30"
   version="1.1"
   id="svg15"
   sodipodi:docname="movelist.svg"
   inkscape:version="0.92.4 (5da689c313, 2019-01-14)">
  <metadata
     id="metadata21">
    <rdf:RDF>
      <cc:Work
         rdf:about="">
        <dc:format>image/svg+xml</dc:format>
        <dc:type
           rdf:resource="http://purl.org/dc/dcmitype/StillImage" />
      </cc:Work>
    </rdf:RDF>
  </metadata>
  <defs
     id="defs19" />
  <sodipodi:namedview
     pagecolor="#ffffff"
     bordercolor="#666666"
     borderopacity="1"
     objecttolerance="10"
     gridtolerance="10"
     guidetolerance="10"
     inkscape:pageopacity="0"
     inkscape:pageshadow="2"
     inkscape:window-width="2560"
     inkscape:window-height="1355"
     id="namedview17"
     showgrid="false"
     inkscape:zoom="23.6"
     inkscape:cx="16.95638"
     inkscape:cy="19.02614"
     inkscape:window-x="0"
     inkscape:window-y="26"
     inkscape:window-maximized="1"
     inkscape:current-layer="surface1" />
  <g
     id="surface1">
    <g
       id="g889"
       transform="matrix(1.1433881,0,0,1.1433881,-2.6035157,-2.6542095)">
      <path
         inkscape:connector-curvature="0"
         id="path2"
         d="M 5.160156,10.148947"
         style="fill:#000000;fill-opacity:1;fill-rule:nonzero;stroke:none" />
      <g
         transform="translate(0,0.8681673)"
         id="g874">
        <g
           id="g865"
           transform="translate(0,-0.41837472)">
          <path
             inkscape:connector-curvature="0"
             id="path4"
             d="m 10.474204,16.303829 c 0.797766,-0.665282 1.467202,-0.690525 1.935952,-0.420994 0.46875,0.269531 0.995671,0.878211 1.550782,1.210938 0.722315,0.432947 2.057929,-0.03444 2.657386,-0.626223 1.130923,-1.116436 1.323745,0.185528 2.626278,0.339446 0.711429,0.08407 1.513569,-0.715747 2.342387,-0.713083 0.795132,0.0026 1.100968,0.561751 1.82554,0.528083 0.68218,-0.0317 2.034256,-0.374895 2.6799,-0.815 1.893283,-1.290561 0.89518,-2.697583 -0.576065,-2.15446 -0.868616,0.320658 -1.361168,0.700533 -2.285952,0.654802 -0.498489,-0.02465 -1.169072,-0.653304 -2.09892,-0.550555 -0.47274,0.05224 -0.945273,0.544123 -1.701804,0.407302 -0.872135,-0.157729 -0.782239,-1.163584 -2.308594,-0.972656 -1.080813,0.135196 -1.944954,2.530627 -2.992273,0.758949 -0.299764,-0.507091 -0.826686,-0.955383 -1.398352,-1.106605 -1.377585,-0.364412 -2.592449,0.24878 -3.550781,1.179687 -1.6969227,1.648359 -0.1414472,3.477864 1.294516,2.280369 z"
             style="fill:#000000;fill-opacity:1;fill-rule:nonzero;stroke:none" />
          <path
             inkscape:connector-curvature="0"
             id="path845"
             d="m 5.429688,16.5 c 0.828124,0 1.5,-0.671875 1.5,-1.5 0,-0.828125 -0.671876,-1.5 -1.5,-1.5 -0.828126,0 -1.5,0.671875 -1.5,1.5 0,0.828125 0.671874,1.5 1.5,1.5 z"
             style="fill:#000000;fill-opacity:1;fill-rule:nonzero;stroke:none" />
        </g>
      </g>
      <path
         inkscape:connector-curvature="0"
         id="path6"
         d="M 5.429688,17.20403"
         style="fill:#000000;fill-opacity:1;fill-rule:nonzero;stroke:none" />
      <path
         inkscape:connector-curvature="0"
         id="path10"
         d="M 5.308594,20.731573"
         style="fill:#000000;fill-opacity:1;fill-rule:nonzero;stroke:none" />
      <g
         transform="translate(0,2.8233581e-6)"
         id="g861">
        <path
           style="fill:#000000;fill-opacity:1;fill-rule:nonzero;stroke:none"
           d="m 5.160156,8.1214031 c 0.828125,0 1.5,-0.671875 1.5,-1.5 0,-0.828125 -0.671875,-1.5 -1.5,-1.5 -0.828125,0 -1.5,0.671875 -1.5,1.5 0,0.828125 0.671875,1.5 1.5,1.5 z"
           id="path839"
           inkscape:connector-curvature="0" />
        <path
           inkscape:connector-curvature="0"
           style="fill:#000000;fill-opacity:1;fill-rule:nonzero;stroke:none"
           d="m 10.474204,7.9252316 c 0.797766,-0.665282 1.467202,-0.690525 1.935952,-0.420994 0.46875,0.269531 0.995671,0.878211 1.550782,1.210938 0.722315,0.432947 2.057929,-0.03444 2.657386,-0.626223 1.130923,-1.116436 1.323745,0.185528 2.626278,0.339446 0.711429,0.08407 1.513569,-0.715747 2.342387,-0.713083 0.795132,0.0026 1.100968,0.561751 1.82554,0.528083 0.68218,-0.0317 2.034256,-0.374895 2.6799,-0.815 1.893283,-1.290561 0.89518,-2.697583 -0.576065,-2.15446 -0.868616,0.320658 -1.361168,0.700533 -2.285952,0.654802 -0.498489,-0.02465 -1.169072,-0.653304 -2.09892,-0.550555 -0.47274,0.05224 -0.945273,0.544123 -1.701804,0.407302 -0.872135,-0.157729 -0.782239,-1.163584 -2.308594,-0.972656 -1.080813,0.135196 -1.944954,2.530627 -2.992273,0.758949 -0.299764,-0.507091 -0.826686,-0.955383 -1.398352,-1.106605 -1.377585,-0.364412 -2.592449,0.24878 -3.550781,1.179687 -1.6969227,1.648359 -0.1414472,3.477864 1.294516,2.280369 z"
           id="path833" />
      </g>
      <g
         id="g869">
        <path
           inkscape:connector-curvature="0"
           id="path855"
           d="m 5.160156,25.759115 c 0.828125,0 1.5,-0.671875 1.5,-1.5 0,-0.828125 -0.671875,-1.5 -1.5,-1.5 -0.828125,0 -1.5,0.671875 -1.5,1.5 0,0.828125 0.671875,1.5 1.5,1.5 z"
           style="fill:#000000;fill-opacity:1;fill-rule:nonzero;stroke:none" />
        <path
           id="path857"
           d="m 10.474204,25.562943 c 0.797766,-0.665282 1.467202,-0.690525 1.935952,-0.420994 0.46875,0.269531 0.995671,0.878211 1.550782,1.210938 0.722315,0.432947 2.057929,-0.03444 2.657386,-0.626223 1.130923,-1.116436 1.323745,0.185528 2.626278,0.339446 0.711429,0.08407 1.513569,-0.715747 2.342387,-0.713083 0.795132,0.0026 1.100968,0.561751 1.82554,0.528083 0.68218,-0.0317 2.034256,-0.374895 2.6799,-0.815 1.893283,-1.290561 0.89518,-2.697583 -0.576065,-2.15446 -0.868616,0.320658 -1.361168,0.700533 -2.285952,0.654802 -0.498489,-0.02465 -1.169072,-0.653304 -2.09892,-0.550555 -0.47274,0.05224 -0.945273,0.544123 -1.701804,0.407302 -0.872135,-0.157729 -0.782239,-1.163584 -2.308594,-0.972656 -1.080813,0.135196 -1.944954,2.530627 -2.992273,0.758949 -0.299764,-0.507091 -0.826686,-0.955383 -1.398352,-1.106605 -1.377585,-0.364412 -2.592449,0.24878 -3.550781,1.179687 -1.6969227,1.648359 -0.1414472,3.477864 1.294516,2.280369 z"
           style="fill:#000000;fill-opacity:1;fill-rule:nonzero;stroke:none"
           inkscape:connector-curvature="0" />
      </g>
    </g>
  </g>
</svg>
